<svg fill="currentColor" xmlns="http://www.w3.org/2000/svg"  viewBox="0 0 64 64">
<path d="M41 42h-4c-.553 0-1 .448-1 1s.447 1 1 1h4c.553 0 1-.448 1-1S41.553 42 41 42zM33 42h-4c-.553 0-1 .448-1 1s.447 1 1 1h4c.553 0 1-.448 1-1S33.553 42 33 42zM39 40c.553 0 1-.448 1-1s-.447-1-1-1h-8c-.553 0-1 .448-1 1s.447 1 1 1H39zM19 8c-.553 0-1 .448-1 1v4c0 .552.447 1 1 1s1-.448 1-1V9C20 8.448 19.553 8 19 8zM15 8h-2c-.553 0-1 .448-1 1s.447 1 1 1h2c.553 0 1-.448 1-1S15.553 8 15 8zM15 13h-2c-.553 0-1 .448-1 1s.447 1 1 1h2c.553 0 1-.448 1-1S15.553 13 15 13zM15 18h-2c-.553 0-1 .448-1 1s.447 1 1 1h2c.553 0 1-.448 1-1S15.553 18 15 18zM15 23h-2c-.553 0-1 .448-1 1s.447 1 1 1h2c.553 0 1-.448 1-1S15.553 23 15 23zM15 28h-2c-.553 0-1 .448-1 1s.447 1 1 1h2c.553 0 1-.448 1-1S15.553 28 15 28zM15 33h-2c-.553 0-1 .448-1 1s.447 1 1 1h2c.553 0 1-.448 1-1S15.553 33 15 33zM15 38h-2c-.553 0-1 .448-1 1s.447 1 1 1h2c.553 0 1-.448 1-1S15.553 38 15 38zM15 43h-2c-.553 0-1 .448-1 1s.447 1 1 1h2c.553 0 1-.448 1-1S15.553 43 15 43zM15 48h-2c-.553 0-1 .448-1 1s.447 1 1 1h2c.553 0 1-.448 1-1S15.553 48 15 48zM39.242 27.616C39.714 26.852 40 25.962 40 25v-2c0-2.757-2.243-5-5-5s-5 2.243-5 5v2c0 .962.286 1.853.759 2.616-2.63 1.018-4.708 3.234-5.46 6.079-.142.534.178 1.081.711 1.222.535.139 1.082-.177 1.223-.711.665-2.515 2.667-4.386 5.115-4.984C33.118 29.708 34.023 30 35 30s1.882-.292 2.653-.779c2.449.598 4.451 2.469 5.116 4.986.118.448.523.745.966.745.085 0 .171-.011.256-.034.534-.141.853-.688.712-1.222C43.951 30.85 41.873 28.634 39.242 27.616zM38.125 25.042c0 1.723-1.402 3.125-3.125 3.125s-3.125-1.402-3.125-3.125v-2.083c0-1.723 1.402-3.125 3.125-3.125s3.125 1.402 3.125 3.125V25.042z"/>
<path d="M54,10h-2V7c0-1.654-1.346-3-3-3H12C9.794,4,8,5.794,8,8v47v1c0,2.206,1.794,4,4,4h35c1.654,0,3-1.346,3-3v-3.184c1.161-0.414,2-1.514,2-2.816v-6.382l2.895-1.447C55.576,42.83,56,42.145,56,41.382V12C56,10.897,55.103,10,54,10z M48,57c0,0.551-0.448,1-1,1H12c-1.103,0-2-0.897-2-2c0-1.245,1.389-2,2-2h36V57z M50,10v10v5.618V30v5.618v10V51c0,0.551-0.448,1-1,1H20V17c0-0.552-0.447-1-1-1s-1,0.448-1,1v35h-6c-0.617,0-1.34,0.223-2,0.633V8c0-1.103,0.897-2,2-2h37c0.552,0,1,0.449,1,1V10z M54,41.382l-2,1v-7.764l2-1V41.382z M54,31.382l-2,1v-7.764l2-1V31.382z M54,21.382l-2,1V12h2V21.382z"/>
</svg>
