<svg width="48" height="48" fill="none" xmlns="http://www.w3.org/2000/svg"><path fill-rule="evenodd" clip-rule="evenodd" d="M24 0a24 24 0 110 48 24 24 0 010-48zm6.4 20.96c-.12-.95-.41-1.7-.93-2.35a4.69 4.69 0 00-2.8-1.66c-.83-.2-1.17-.18-1.47.1-.28.25-.33.76-.12 1.1.15.24.33.32.8.42a4.5 4.5 0 011.5.5c.85.5 1.25 1.27 1.29 2.52.02.59.07.77.28.98a.88.88 0 001.34-.15c.1-.18.12-.25.13-.65.01-.25 0-.61-.03-.81zm0-5.82a9.17 9.17 0 013.34 6.89c.08 1.14-.02 1.51-.42 1.73a.86.86 0 01-1.06-.17c-.19-.19-.26-.45-.26-.92 0-1.29-.29-2.73-.77-3.73a7.2 7.2 0 00-5.95-4.05c-.79-.07-1.07-.2-1.23-.58-.09-.23-.06-.62.05-.8.1-.16.33-.34.5-.39a9.4 9.4 0 015.8 2.02zm7.05 18.08a3.2 3.2 0 00-.28-.57c-.6-.9-3.8-3.41-5.4-4.23-.92-.47-1.6-.63-2.1-.48-.54.15-.82.4-1.73 1.52-.36.45-.74.88-.84.94-.24.17-.73.31-1.07.31-.79 0-2.22-.52-3.33-1.19a14.25 14.25 0 01-2.8-2.38c-1-1.09-1.67-2.05-2.2-3.13-.7-1.39-.87-2.24-.58-2.86.07-.15.16-.32.2-.37l.99-.81c.96-.77 1.12-.95 1.3-1.47.23-.67.16-1.36-.19-2.04a28.42 28.42 0 00-4.18-5.72c-.6-.49-1.39-.57-2.24-.24-.9.35-2.6 1.72-3.33 2.67-.65.86-.9 1.47-.94 2.28-.03.66.02.94.37 1.79a37.64 37.64 0 0012.46 16.2 35.28 35.28 0 009.14 5.03c1.85.67 2.65.7 3.59.15.4-.23 1.38-1.24 1.93-1.98.91-1.22 1.25-1.79 1.34-2.24.07-.3.02-.84-.1-1.18zm-1.2-15.02a13.23 13.23 0 01.89 5.82c-.04.77-.09.92-.3 1.13-.37.33-1.06.25-1.33-.15-.13-.22-.15-.38-.13-1.28a11.55 11.55 0 00-8.66-11.87c-.77-.21-1.42-.34-2.43-.48-.66-.08-.8-.12-.97-.22-.49-.31-.5-1.1 0-1.43.25-.17.43-.17 1.25-.07 2.42.3 4.57 1.02 6.34 2.1a11.5 11.5 0 013.1 2.7 11.96 11.96 0 012.23 3.75z" fill="currentColor"/></svg>
