<svg fill="none" xmlns="http://www.w3.org/2000/svg"><path fill-rule="evenodd" clip-rule="evenodd" d="M24 48a24 24 0 110-48 24 24 0 010 48zm.8-10.65A14.3 14.3 0 0034.88 13 14.3 14.3 0 0012.43 30.2L10.4 37.6l7.57-1.98a14.26 14.26 0 006.82 1.73z" fill="currentColor"/><path fill-rule="evenodd" clip-rule="evenodd" d="M18.32 33.03l-4.5 1.18 1.2-4.38-.28-.45a11.88 11.88 0 0118.44-14.7 11.88 11.88 0 01-8.4 20.25c-2.12.01-4.21-.56-6.03-1.64l-.43-.26zm13.66-6.55c-.09-.15-.33-.24-.68-.42a59.4 59.4 0 00-2.44-1.16c-.33-.12-.56-.18-.8.18-.24.35-.92 1.16-1.13 1.4-.2.23-.42.26-.77.08-.36-.17-1.5-.55-2.87-1.77a10.75 10.75 0 01-1.98-2.47c-.21-.35-.03-.55.15-.72.16-.16.36-.42.54-.63.18-.2.23-.36.35-.6.12-.23.06-.44-.03-.62s-.8-1.93-1.1-2.65c-.29-.7-.58-.6-.8-.6-.2-.02-.44-.02-.68-.02-.24 0-.63.09-.95.45-.33.35-1.25 1.22-1.25 2.97 0 1.76 1.28 3.45 1.46 3.69.17.24 2.51 3.84 6.09 5.38.85.37 1.51.6 2.03.76.85.27 1.63.23 2.25.14.68-.1 2.1-.87 2.4-1.7.3-.83.3-1.55.21-1.7z" fill="currentColor"/></svg>
