<svg xmlns="http://www.w3.org/2000/svg" xmlns:xlink="http://www.w3.org/1999/xlink"><symbol id="close" viewBox="0 0 30 30"><path fill-rule="evenodd" clip-rule="evenodd" d="M15 19.507 4.507 30 0 25.493 10.493 15 0 4.507 4.507 0 15 10.493 25.493 0 30 4.507 19.507 15 30 25.493 25.493 30 15 19.507Z" fill="currentColor"/></symbol><symbol id="contacts" viewBox="0 0 64 64"><path d="M41 42h-4a1 1 0 1 0 0 2h4a1 1 0 1 0 0-2zm-8 0h-4a1 1 0 1 0 0 2h4a1 1 0 1 0 0-2zm6-2a1 1 0 1 0 0-2h-8a1 1 0 1 0 0 2h8zM19 8a1 1 0 0 0-1 1v4a1 1 0 1 0 2 0V9a1 1 0 0 0-1-1zm-4 0h-2a1 1 0 1 0 0 2h2a1 1 0 1 0 0-2zm0 5h-2a1 1 0 1 0 0 2h2a1 1 0 1 0 0-2zm0 5h-2a1 1 0 1 0 0 2h2a1 1 0 1 0 0-2zm0 5h-2a1 1 0 1 0 0 2h2a1 1 0 1 0 0-2zm0 5h-2a1 1 0 1 0 0 2h2a1 1 0 1 0 0-2zm0 5h-2a1 1 0 1 0 0 2h2a1 1 0 1 0 0-2zm0 5h-2a1 1 0 1 0 0 2h2a1 1 0 1 0 0-2zm0 5h-2a1 1 0 1 0 0 2h2a1 1 0 1 0 0-2zm0 5h-2a1 1 0 1 0 0 2h2a1 1 0 1 0 0-2zm24.242-20.384A4.957 4.957 0 0 0 40 25v-2c0-2.757-2.243-5-5-5s-5 2.243-5 5v2c0 .962.286 1.853.759 2.616a8.991 8.991 0 0 0-5.46 6.079 1 1 0 1 0 1.934.511c.665-2.515 2.667-4.386 5.115-4.984.77.486 1.675.778 2.652.778s1.882-.292 2.653-.779c2.449.598 4.451 2.469 5.116 4.986a1 1 0 1 0 1.934-.511 8.99 8.99 0 0 0-5.461-6.08zm-1.117-2.574c0 1.723-1.402 3.125-3.125 3.125s-3.125-1.402-3.125-3.125v-2.083c0-1.723 1.402-3.125 3.125-3.125s3.125 1.402 3.125 3.125v2.083z"/><path d="M54 10h-2V7c0-1.654-1.346-3-3-3H12C9.794 4 8 5.794 8 8v48c0 2.206 1.794 4 4 4h35c1.654 0 3-1.346 3-3v-3.184A2.996 2.996 0 0 0 52 51v-6.382l2.895-1.447A1.99 1.99 0 0 0 56 41.382V12c0-1.103-.897-2-2-2zm-6 47c0 .551-.448 1-1 1H12c-1.103 0-2-.897-2-2 0-1.245 1.389-2 2-2h36v3zm2-47v41c0 .551-.448 1-1 1H20V17a1 1 0 1 0-2 0v35h-6c-.617 0-1.34.223-2 .633V8c0-1.103.897-2 2-2h37c.552 0 1 .449 1 1v3zm4 31.382-2 1v-7.764l2-1v7.764zm0-10-2 1v-7.764l2-1v7.764zm0-10-2 1V12h2v9.382z"/></symbol><symbol id="instagram"><path fill-rule="evenodd" clip-rule="evenodd" d="M0 24a24 24 0 1 1 48 0 24 24 0 0 1-48 0zm24-12.8c-3.48 0-3.91.02-5.28.08a9.4 9.4 0 0 0-3.1.6c-.85.32-1.56.76-2.27 1.47a6.28 6.28 0 0 0-1.48 2.27 9.35 9.35 0 0 0-.6 3.1c-.05 1.37-.07 1.8-.07 5.28 0 3.48.02 3.91.08 5.28a9.4 9.4 0 0 0 .6 3.1c.32.85.76 1.56 1.47 2.27a6.27 6.27 0 0 0 2.27 1.48 9.4 9.4 0 0 0 3.1.6c1.37.06 1.8.07 5.28.07 3.48 0 3.91-.01 5.28-.08a9.4 9.4 0 0 0 3.1-.6 6.26 6.26 0 0 0 2.27-1.47 6.28 6.28 0 0 0 1.48-2.27c.31-.81.53-1.74.6-3.1.05-1.37.07-1.8.07-5.28 0-3.48-.02-3.91-.08-5.28a9.48 9.48 0 0 0-.6-3.1 6.28 6.28 0 0 0-1.47-2.27 6.26 6.26 0 0 0-2.27-1.48 9.42 9.42 0 0 0-3.1-.6c-1.37-.05-1.8-.07-5.28-.07z" fill="currentColor"/><path fill-rule="evenodd" clip-rule="evenodd" d="M22.85 13.5H24c3.42 0 3.82.02 5.17.08 1.25.06 1.93.27 2.38.44.6.23 1.02.51 1.47.96.45.45.73.87.96 1.47.17.45.38 1.13.44 2.38.06 1.35.07 1.75.07 5.17 0 3.41 0 3.82-.07 5.17a7.08 7.08 0 0 1-.44 2.37c-.23.6-.51 1.03-.96 1.47-.45.45-.87.73-1.47.96-.45.18-1.13.39-2.38.44-1.35.06-1.75.08-5.17.08a89.1 89.1 0 0 1-5.17-.08 7.1 7.1 0 0 1-2.38-.44c-.6-.23-1.02-.5-1.47-.96a3.97 3.97 0 0 1-.96-1.47 7.07 7.07 0 0 1-.44-2.37 89.42 89.42 0 0 1-.07-5.18c0-3.41.01-3.82.07-5.17.06-1.24.27-1.92.44-2.37.23-.6.51-1.03.96-1.48.45-.44.87-.72 1.47-.95a7.07 7.07 0 0 1 2.38-.44c1.18-.06 1.64-.07 4.02-.08zm7.98 2.13a1.54 1.54 0 1 0 0 3.07 1.54 1.54 0 0 0 0-3.07zM24 17.43a6.57 6.57 0 1 0 0 13.14 6.57 6.57 0 0 0 0-13.14z" fill="currentColor"/><path fill-rule="evenodd" clip-rule="evenodd" d="M24 19.73a4.27 4.27 0 1 1 0 8.54 4.27 4.27 0 0 1 0-8.54z" fill="currentColor"/></symbol><symbol id="left_arrow" viewBox="0 0 24 24"><path d="M8.707 6.707a1 1 0 0 0-1.414-1.414l-6 6a1 1 0 0 0 0 1.414l6 6a1 1 0 0 0 1.414-1.414L4.414 13H21.99c.559 0 1.011-.448 1.011-1s-.452-1-1.01-1H4.413l4.293-4.293Z" fill="currentColor"/></symbol><symbol id="main" viewBox="0 0 50 50"><path d="M33 4v5.59l-8-8-23.7 23.7 1.4 1.42L4 25.4V49h42V25.41l1.3 1.3 1.4-1.42-6.7-6.7V4h-9zm2 2h5v10.59l-5-5V6zM20 47V31h10v16H20zm24 0H32V29H18v18H6V23.41l19-19 19 19V47z"/></symbol><symbol id="photogallery" viewBox="0 0 50 50"><path d="M43 39h6V4H8v6H1v36h42v-7zM10 6h37v31h-4V10H10V6zm-2 6h33v7.59l-4-4-17 17-10-10-7 7V12h5zm33 32H3V32.41l7-7 10 10 17-17 4 4V44z"/><path d="M20 25a5 5 0 1 0-.01-10.01A5 5 0 0 0 20 25zm0-8a3 3 0 1 1 0 6 3 3 0 0 1 0-6z"/></symbol><symbol id="reviews" viewBox="0 0 50 50"><path d="M1 39h10v9.41L20.41 39H49V1H1v38zM3 3h44v34H19.59L13 43.59V37H3V3z"/><path d="M17 20a4 4 0 1 0-8 0 4 4 0 0 0 8 0zm-6 0a2 2 0 1 1 4 0 2 2 0 0 1-4 0zm14 4a4 4 0 1 0 0-8 4 4 0 0 0 0 8zm0-6a2 2 0 1 1 0 4 2 2 0 0 1 0-4zm12 6a4 4 0 1 0 0-8 4 4 0 0 0 0 8zm0-6a2 2 0 1 1 0 4 2 2 0 0 1 0-4z"/></symbol><symbol id="right_arrow" viewBox="0 0 24 24"><path d="M15.293 6.707a1 1 0 0 1 1.414-1.414l6 6a1 1 0 0 1 0 1.414l-6 6a1 1 0 0 1-1.414-1.414L19.586 13H2.011A1.006 1.006 0 0 1 1 12c0-.552.453-1 1.011-1h17.575l-4.293-4.293Z" fill="currentColor"/></symbol><symbol id="viber" viewBox="0 0 50 50"><path fill-rule="evenodd" clip-rule="evenodd" d="M24 0a24 24 0 1 1 0 48 24 24 0 0 1 0-48zm6.4 20.96c-.12-.95-.41-1.7-.93-2.35a4.69 4.69 0 0 0-2.8-1.66c-.83-.2-1.17-.18-1.47.1-.28.25-.33.76-.12 1.1.15.24.33.32.8.42a4.5 4.5 0 0 1 1.5.5c.85.5 1.25 1.27 1.29 2.52.02.59.07.77.28.98a.88.88 0 0 0 1.34-.15c.1-.18.12-.25.13-.65.01-.25 0-.61-.03-.81zm0-5.82a9.17 9.17 0 0 1 3.34 6.89c.08 1.14-.02 1.51-.42 1.73a.86.86 0 0 1-1.06-.17c-.19-.19-.26-.45-.26-.92 0-1.29-.29-2.73-.77-3.73a7.2 7.2 0 0 0-5.95-4.05c-.79-.07-1.07-.2-1.23-.58-.09-.23-.06-.62.05-.8.1-.16.33-.34.5-.39a9.4 9.4 0 0 1 5.8 2.02zm7.05 18.08a3.2 3.2 0 0 0-.28-.57c-.6-.9-3.8-3.41-5.4-4.23-.92-.47-1.6-.63-2.1-.48-.54.15-.82.4-1.73 1.52-.36.45-.74.88-.84.94-.24.17-.73.31-1.07.31-.79 0-2.22-.52-3.33-1.19a14.25 14.25 0 0 1-2.8-2.38c-1-1.09-1.67-2.05-2.2-3.13-.7-1.39-.87-2.24-.58-2.86.07-.15.16-.32.2-.37l.99-.81c.96-.77 1.12-.95 1.3-1.47.23-.67.16-1.36-.19-2.04a28.42 28.42 0 0 0-4.18-5.72c-.6-.49-1.39-.57-2.24-.24-.9.35-2.6 1.72-3.33 2.67-.65.86-.9 1.47-.94 2.28-.03.66.02.94.37 1.79a37.64 37.64 0 0 0 12.46 16.2 35.28 35.28 0 0 0 9.14 5.03c1.85.67 2.65.7 3.59.15.4-.23 1.38-1.24 1.93-1.98.91-1.22 1.25-1.79 1.34-2.24.07-.3.02-.84-.1-1.18zm-1.2-15.02a13.23 13.23 0 0 1 .89 5.82c-.04.77-.09.92-.3 1.13-.37.33-1.06.25-1.33-.15-.13-.22-.15-.38-.13-1.28a11.55 11.55 0 0 0-8.66-11.87c-.77-.21-1.42-.34-2.43-.48-.66-.08-.8-.12-.97-.22-.49-.31-.5-1.1 0-1.43.25-.17.43-.17 1.25-.07 2.42.3 4.57 1.02 6.34 2.1a11.5 11.5 0 0 1 3.1 2.7 11.96 11.96 0 0 1 2.23 3.75z" fill="currentColor"/></symbol><symbol id="vk" viewBox="0 0 50 50"><path d="M41 4H9C6.24 4 4 6.24 4 9v32c0 2.76 2.24 5 5 5h32c2.76 0 5-2.24 5-5V9c0-2.76-2.24-5-5-5zm-3.28 29-3.73-.01s-.08.01-.21.01c-.3 0-.92-.08-1.65-.58-1.31-.91-2.56-3.17-3.55-3.17-.07 0-.13.01-.19.03-.86.27-1.12 1.13-1.12 2.18 0 .37-.26.54-.96.54h-1.93c-2.16 0-4.25-.05-6.6-2.62-3.46-3.79-6.7-10.53-6.7-10.53s-.18-.39.01-.62c.18-.21.6-.23.76-.23h4.06s.37.07.64.27c.23.17.35.48.35.48s.68 1.32 1.53 2.81c1.43 2.46 2.2 3.28 2.75 3.28.09 0 .18-.02.27-.07.82-.45.58-4.09.58-4.09s.01-1.32-.42-1.9c-.33-.46-.96-.59-1.24-.63-.22-.03.14-.55.62-.79.62-.3 1.65-.36 2.89-.36h.6c1.17.02 1.2.14 1.66.25 1.38.33.91 1.62.91 4.71 0 .99-.18 2.38.53 2.85.05.03.12.05.21.05.46 0 1.45-.59 3.03-3.26.88-1.52 1.56-3.03 1.56-3.03s.15-.27.38-.41c.22-.13.22-.13.51-.13h.03c.32 0 3.5-.03 4.2-.03h.08c.67 0 1.28.01 1.39.42.16.62-.49 1.73-2.2 4.03-2.82 3.77-3.14 3.49-.8 5.67 2.24 2.08 2.7 3.09 2.78 3.22.93 1.54-1.03 1.66-1.03 1.66z" fill="currentColor"/></symbol><symbol id="whatsapp" viewBox="0 0 50 50"><path fill-rule="evenodd" clip-rule="evenodd" d="M24 48a24 24 0 1 1 0-48 24 24 0 0 1 0 48zm.8-10.65A14.3 14.3 0 0 0 34.88 13a14.3 14.3 0 0 0-22.45 17.2l-2.03 7.4 7.57-1.98a14.26 14.26 0 0 0 6.82 1.73z" fill="currentColor"/><path fill-rule="evenodd" clip-rule="evenodd" d="m18.32 33.03-4.5 1.18 1.2-4.38-.28-.45a11.88 11.88 0 0 1 18.44-14.7 11.88 11.88 0 0 1-8.4 20.25c-2.12.01-4.21-.56-6.03-1.64l-.43-.26zm13.66-6.55c-.09-.15-.33-.24-.68-.42a59.4 59.4 0 0 0-2.44-1.16c-.33-.12-.56-.18-.8.18-.24.35-.92 1.16-1.13 1.4-.2.23-.42.26-.77.08-.36-.17-1.5-.55-2.87-1.77a10.75 10.75 0 0 1-1.98-2.47c-.21-.35-.03-.55.15-.72.16-.16.36-.42.54-.63.18-.2.23-.36.35-.6.12-.23.06-.44-.03-.62s-.8-1.93-1.1-2.65c-.29-.7-.58-.6-.8-.6-.2-.02-.44-.02-.68-.02-.24 0-.63.09-.95.45-.33.35-1.25 1.22-1.25 2.97 0 1.76 1.28 3.45 1.46 3.69.17.24 2.51 3.84 6.09 5.38.85.37 1.51.6 2.03.76.85.27 1.63.23 2.25.14.68-.1 2.1-.87 2.4-1.7.3-.83.3-1.55.21-1.7z" fill="currentColor"/></symbol></svg>