<svg version="1.0" xmlns="http://www.w3.org/2000/svg" viewBox="0 0 50 50" preserveAspectRatio="xMidYMid meet">
  <g transform="translate(0.000000,50.000000) scale(0.100000,-0.100000)"
  fill="#ffffff" stroke="none">
  <path d="M145 430 c-13 -14 -33 -20 -79 -22 l-61 -3 0 -160 0 -160 245 0 245
  0 0 160 0 160 -61 3 c-46 2 -66 8 -79 22 -15 17 -31 20 -105 20 -74 0 -90 -3
  -105 -20z m200 -20 c14 -16 31 -20 77 -20 l58 0 0 -145 0 -145 -230 0 -230 0
  0 145 0 145 58 0 c46 0 63 4 77 20 15 17 31 20 95 20 64 0 80 -3 95 -20z"/>
  <path d="M190 373 c-95 -49 -87 -193 13 -232 105 -40 206 61 166 166 -27 70
  -111 101 -179 66z m110 -18 c32 -17 60 -61 60 -95 0 -53 -57 -110 -110 -110
  -53 0 -110 57 -110 110 0 33 28 78 58 94 35 20 66 20 102 1z"/>
  <path d="M189 321 c-20 -20 -29 -39 -29 -61 0 -43 47 -90 90 -90 43 0 90 47
  90 90 0 43 -47 90 -90 90 -22 0 -41 -9 -61 -29z m108 -13 c29 -27 29 -65 1
  -95 -27 -29 -65 -29 -95 -1 -29 27 -29 65 -1 95 27 29 65 29 95 1z"/>
  <path d="M65 350 c-4 -7 -3 -16 3 -22 14 -14 45 -2 40 15 -6 16 -34 21 -43 7z"/>
  </g>
</svg>
