<svg width="280" height="280" viewBox="0 0 280 280" fill="none" xmlns="http://www.w3.org/2000/svg">
<rect width="280" height="280" fill="black"/>
<rect x="252" y="259" width="14" height="14" rx="4" fill="white"/>
<rect x="252" y="231" width="14" height="14" rx="4" fill="white"/>
<rect x="252" y="203" width="14" height="14" rx="4" fill="white"/>
<rect x="252" y="175" width="14" height="14" rx="4" fill="white"/>
<rect x="252" y="147" width="14" height="14" rx="4" fill="white"/>
<rect x="252" y="119" width="14" height="14" rx="4" fill="white"/>
<rect x="252" y="91" width="14" height="14" rx="4" fill="white"/>
<rect x="252" y="63" width="14" height="14" rx="4" fill="white"/>
<rect x="252" y="7" width="14" height="14" rx="4" fill="white"/>
<rect x="252" y="35" width="14" height="14" rx="4" fill="white"/>
<rect x="14" y="259" width="14" height="14" rx="4" fill="white"/>
<rect x="14" y="231" width="14" height="14" rx="4" fill="white"/>
<rect x="14" y="203" width="14" height="14" rx="4" fill="white"/>
<rect x="14" y="175" width="14" height="14" rx="4" fill="white"/>
<rect x="14" y="147" width="14" height="14" rx="4" fill="white"/>
<rect x="14" y="119" width="14" height="14" rx="4" fill="white"/>
<rect x="14" y="91" width="14" height="14" rx="4" fill="white"/>
<rect x="14" y="63" width="14" height="14" rx="4" fill="white"/>
<rect x="14" y="7" width="14" height="14" rx="4" fill="white"/>
<rect x="14" y="35" width="14" height="14" rx="4" fill="white"/>
</svg>
