<svg style="display: none" xmlns="http://www.w3.org/2000/svg">
  <symbol viewbox="0 0 48 48" fill="none" id="instagram">
    <path fill-rule="evenodd" clip-rule="evenodd" d="M0 24a24 24 0 1148 0 24 24 0 01-48 0zm24-12.8c-3.48 0-3.91.02-5.28.08a9.4 9.4 0 00-3.1.6c-.85.32-1.56.76-2.27 1.47a6.28 6.28 0 00-1.48 2.27 9.35 9.35 0 00-.6 3.1c-.05 1.37-.07 1.8-.07 5.28 0 3.48.02 3.91.08 5.28a9.4 9.4 0 00.6 3.1c.32.85.76 1.56 1.47 2.27a6.27 6.27 0 002.27 1.48 9.4 9.4 0 003.1.6c1.37.06 1.8.07 5.28.07 3.48 0 3.91-.01 5.28-.08a9.4 9.4 0 003.1-.6 6.26 6.26 0 002.27-1.47 6.28 6.28 0 001.48-2.27c.31-.81.53-1.74.6-3.1.05-1.37.07-1.8.07-5.28 0-3.48-.02-3.91-.08-5.28a9.48 9.48 0 00-.6-3.1 6.28 6.28 0 00-1.47-2.27 6.26 6.26 0 00-2.27-1.48 9.42 9.42 0 00-3.1-.6c-1.37-.05-1.8-.07-5.28-.07z" fill="currentColor"/>
    <path fill-rule="evenodd" clip-rule="evenodd" d="M22.85 13.5H24c3.42 0 3.82.02 5.17.08 1.25.06 1.93.27 2.38.44.6.23 1.02.51 1.47.96.45.45.73.87.96 1.47.17.45.38 1.13.44 2.38.06 1.35.07 1.75.07 5.17 0 3.41 0 3.82-.07 5.17a7.08 7.08 0 01-.44 2.37c-.23.6-.51 1.03-.96 1.47-.45.45-.87.73-1.47.96-.45.18-1.13.39-2.38.44-1.35.06-1.75.08-5.17.08a89.1 89.1 0 01-5.17-.08 7.1 7.1 0 01-2.38-.44c-.6-.23-1.02-.5-1.47-.96a3.97 3.97 0 01-.96-1.47 7.07 7.07 0 01-.44-2.37 89.42 89.42 0 01-.07-5.18c0-3.41.01-3.82.07-5.17.06-1.24.27-1.92.44-2.37.23-.6.51-1.03.96-1.48.45-.44.87-.72 1.47-.95a7.07 7.07 0 012.38-.44c1.18-.06 1.64-.07 4.02-.08zm7.98 2.13a1.54 1.54 0 100 3.07 1.54 1.54 0 000-3.07zM24 17.43a6.57 6.57 0 100 13.14 6.57 6.57 0 000-13.14z" fill="currentColor"/>
    <path fill-rule="evenodd" clip-rule="evenodd" d="M24 19.73a4.27 4.27 0 110 8.54 4.27 4.27 0 010-8.54z" fill="currentColor"/>
  </symbol>
  <symbol viewbox="0 0 48 48" fill="none" id="viber">
    <path fill-rule="evenodd" clip-rule="evenodd" d="M24 0a24 24 0 110 48 24 24 0 010-48zm6.4 20.96c-.12-.95-.41-1.7-.93-2.35a4.69 4.69 0 00-2.8-1.66c-.83-.2-1.17-.18-1.47.1-.28.25-.33.76-.12 1.1.15.24.33.32.8.42a4.5 4.5 0 011.5.5c.85.5 1.25 1.27 1.29 2.52.02.59.07.77.28.98a.88.88 0 001.34-.15c.1-.18.12-.25.13-.65.01-.25 0-.61-.03-.81zm0-5.82a9.17 9.17 0 013.34 6.89c.08 1.14-.02 1.51-.42 1.73a.86.86 0 01-1.06-.17c-.19-.19-.26-.45-.26-.92 0-1.29-.29-2.73-.77-3.73a7.2 7.2 0 00-5.95-4.05c-.79-.07-1.07-.2-1.23-.58-.09-.23-.06-.62.05-.8.1-.16.33-.34.5-.39a9.4 9.4 0 015.8 2.02zm7.05 18.08a3.2 3.2 0 00-.28-.57c-.6-.9-3.8-3.41-5.4-4.23-.92-.47-1.6-.63-2.1-.48-.54.15-.82.4-1.73 1.52-.36.45-.74.88-.84.94-.24.17-.73.31-1.07.31-.79 0-2.22-.52-3.33-1.19a14.25 14.25 0 01-2.8-2.38c-1-1.09-1.67-2.05-2.2-3.13-.7-1.39-.87-2.24-.58-2.86.07-.15.16-.32.2-.37l.99-.81c.96-.77 1.12-.95 1.3-1.47.23-.67.16-1.36-.19-2.04a28.42 28.42 0 00-4.18-5.72c-.6-.49-1.39-.57-2.24-.24-.9.35-2.6 1.72-3.33 2.67-.65.86-.9 1.47-.94 2.28-.03.66.02.94.37 1.79a37.64 37.64 0 0012.46 16.2 35.28 35.28 0 009.14 5.03c1.85.67 2.65.7 3.59.15.4-.23 1.38-1.24 1.93-1.98.91-1.22 1.25-1.79 1.34-2.24.07-.3.02-.84-.1-1.18zm-1.2-15.02a13.23 13.23 0 01.89 5.82c-.04.77-.09.92-.3 1.13-.37.33-1.06.25-1.33-.15-.13-.22-.15-.38-.13-1.28a11.55 11.55 0 00-8.66-11.87c-.77-.21-1.42-.34-2.43-.48-.66-.08-.8-.12-.97-.22-.49-.31-.5-1.1 0-1.43.25-.17.43-.17 1.25-.07 2.42.3 4.57 1.02 6.34 2.1a11.5 11.5 0 013.1 2.7 11.96 11.96 0 012.23 3.75z" fill="currentColor"/>
  </symbol>
  <symbol viewbox="0 0 48 48" fill="none" id="whatsapp">
    <path fill-rule="evenodd" clip-rule="evenodd" d="M24 48a24 24 0 110-48 24 24 0 010 48zm.8-10.65A14.3 14.3 0 0034.88 13 14.3 14.3 0 0012.43 30.2L10.4 37.6l7.57-1.98a14.26 14.26 0 006.82 1.73z" fill="currentColor"/>
    <path fill-rule="evenodd" clip-rule="evenodd" d="M18.32 33.03l-4.5 1.18 1.2-4.38-.28-.45a11.88 11.88 0 0118.44-14.7 11.88 11.88 0 01-8.4 20.25c-2.12.01-4.21-.56-6.03-1.64l-.43-.26zm13.66-6.55c-.09-.15-.33-.24-.68-.42a59.4 59.4 0 00-2.44-1.16c-.33-.12-.56-.18-.8.18-.24.35-.92 1.16-1.13 1.4-.2.23-.42.26-.77.08-.36-.17-1.5-.55-2.87-1.77a10.75 10.75 0 01-1.98-2.47c-.21-.35-.03-.55.15-.72.16-.16.36-.42.54-.63.18-.2.23-.36.35-.6.12-.23.06-.44-.03-.62s-.8-1.93-1.1-2.65c-.29-.7-.58-.6-.8-.6-.2-.02-.44-.02-.68-.02-.24 0-.63.09-.95.45-.33.35-1.25 1.22-1.25 2.97 0 1.76 1.28 3.45 1.46 3.69.17.24 2.51 3.84 6.09 5.38.85.37 1.51.6 2.03.76.85.27 1.63.23 2.25.14.68-.1 2.1-.87 2.4-1.7.3-.83.3-1.55.21-1.7z" fill="currentColor"/>
  </symbol>
</svg>
