<svg width="320" height="320" viewBox="0 0 320 320" fill="none" xmlns="http://www.w3.org/2000/svg">
<rect width="320" height="320" fill="#2E3033"/>
<rect x="288" y="296" width="16" height="16" rx="4" fill="white"/>
<rect x="288" y="264" width="16" height="16" rx="4" fill="white"/>
<rect x="288" y="232" width="16" height="16" rx="4" fill="white"/>
<rect x="288" y="200" width="16" height="16" rx="4" fill="white"/>
<rect x="288" y="168" width="16" height="16" rx="4" fill="white"/>
<rect x="288" y="136" width="16" height="16" rx="4" fill="white"/>
<rect x="288" y="104" width="16" height="16" rx="4" fill="white"/>
<rect x="288" y="72" width="16" height="16" rx="4" fill="white"/>
<rect x="288" y="8" width="16" height="16" rx="4" fill="white"/>
<rect x="288" y="40" width="16" height="16" rx="4" fill="white"/>
<rect x="16" y="296" width="16" height="16" rx="4" fill="white"/>
<rect x="16" y="264" width="16" height="16" rx="4" fill="white"/>
<rect x="16" y="232" width="16" height="16" rx="4" fill="white"/>
<rect x="16" y="200" width="16" height="16" rx="4" fill="white"/>
<rect x="16" y="168" width="16" height="16" rx="4" fill="white"/>
<rect x="16" y="136" width="16" height="16" rx="4" fill="white"/>
<rect x="16" y="104" width="16" height="16" rx="4" fill="white"/>
<rect x="16" y="72" width="16" height="16" rx="4" fill="white"/>
<rect x="16" y="8" width="16" height="16" rx="4" fill="white"/>
<rect x="16" y="40" width="16" height="16" rx="4" fill="white"/>
</svg>
